<svg width="24" height="25" viewBox="0 0 24 25" fill="none" xmlns="http://www.w3.org/2000/svg">
<path d="M8 17.3183V6.96828C8 6.68494 8.1 6.44744 8.3 6.25578C8.5 6.06411 8.73333 5.96828 9 5.96828C9.08333 5.96828 9.17083 5.98078 9.2625 6.00578C9.35417 6.03078 9.44167 6.06828 9.525 6.11828L17.675 11.2933C17.825 11.3933 17.9375 11.5183 18.0125 11.6683C18.0875 11.8183 18.125 11.9766 18.125 12.1433C18.125 12.3099 18.0875 12.4683 18.0125 12.6183C17.9375 12.7683 17.825 12.8933 17.675 12.9933L9.525 18.1683C9.44167 18.2183 9.35417 18.2558 9.2625 18.2808C9.17083 18.3058 9.08333 18.3183 9 18.3183C8.73333 18.3183 8.5 18.2224 8.3 18.0308C8.1 17.8391 8 17.6016 8 17.3183Z" fill="white"/>
</svg>
