<svg width="15" height="15" viewBox="0 0 15 15" fill="none" xmlns="http://www.w3.org/2000/svg">
<path d="M2.15332 7.11133C1.68945 7.11133 1.34033 6.99414 1.10596 6.75977C0.871582 6.52539 0.754395 6.1665 0.754395 5.68311V2.40186C0.754395 1.92334 0.871582 1.56689 1.10596 1.33252C1.34033 1.09326 1.68945 0.973633 2.15332 0.973633H5.49316C5.95703 0.973633 6.30615 1.09326 6.54053 1.33252C6.7749 1.56689 6.89209 1.92334 6.89209 2.40186V5.68311C6.89209 6.1665 6.7749 6.52539 6.54053 6.75977C6.30615 6.99414 5.95703 7.11133 5.49316 7.11133H2.15332ZM2.16797 6.07861H5.47119C5.59814 6.07861 5.69336 6.04688 5.75684 5.9834C5.8252 5.91504 5.85938 5.8125 5.85938 5.67578V2.40186C5.85938 2.27002 5.8252 2.17236 5.75684 2.10889C5.69336 2.04053 5.59814 2.00635 5.47119 2.00635H2.16797C2.04102 2.00635 1.9458 2.04053 1.88232 2.10889C1.81885 2.17236 1.78711 2.27002 1.78711 2.40186V5.67578C1.78711 5.8125 1.81885 5.91504 1.88232 5.9834C1.9458 6.04688 2.04102 6.07861 2.16797 6.07861ZM9.50684 7.11133C9.03809 7.11133 8.68652 6.99414 8.45215 6.75977C8.21777 6.52539 8.10059 6.1665 8.10059 5.68311V2.40186C8.10059 1.92334 8.21777 1.56689 8.45215 1.33252C8.68652 1.09326 9.03809 0.973633 9.50684 0.973633H12.8394C13.3032 0.973633 13.6523 1.09326 13.8867 1.33252C14.1211 1.56689 14.2383 1.92334 14.2383 2.40186V5.68311C14.2383 6.1665 14.1211 6.52539 13.8867 6.75977C13.6523 6.99414 13.3032 7.11133 12.8394 7.11133H9.50684ZM9.52148 6.07861H12.8247C12.9565 6.07861 13.0518 6.04688 13.1104 5.9834C13.1738 5.91504 13.2056 5.8125 13.2056 5.67578V2.40186C13.2056 2.27002 13.1738 2.17236 13.1104 2.10889C13.0518 2.04053 12.9565 2.00635 12.8247 2.00635H9.52148C9.38965 2.00635 9.29199 2.04053 9.22852 2.10889C9.16504 2.17236 9.1333 2.27002 9.1333 2.40186V5.67578C9.1333 5.8125 9.16504 5.91504 9.22852 5.9834C9.29199 6.04688 9.38965 6.07861 9.52148 6.07861ZM2.15332 14.4575C1.68945 14.4575 1.34033 14.3403 1.10596 14.106C0.871582 13.8716 0.754395 13.5127 0.754395 13.0293V9.75537C0.754395 9.27197 0.871582 8.91309 1.10596 8.67871C1.34033 8.44434 1.68945 8.32715 2.15332 8.32715H5.49316C5.95703 8.32715 6.30615 8.44434 6.54053 8.67871C6.7749 8.91309 6.89209 9.27197 6.89209 9.75537V13.0293C6.89209 13.5127 6.7749 13.8716 6.54053 14.106C6.30615 14.3403 5.95703 14.4575 5.49316 14.4575H2.15332ZM2.16797 13.4248H5.47119C5.59814 13.4248 5.69336 13.3931 5.75684 13.3296C5.8252 13.2661 5.85938 13.1685 5.85938 13.0366V9.75537C5.85938 9.62354 5.8252 9.52588 5.75684 9.4624C5.69336 9.39404 5.59814 9.35986 5.47119 9.35986H2.16797C2.04102 9.35986 1.9458 9.39404 1.88232 9.4624C1.81885 9.52588 1.78711 9.62354 1.78711 9.75537V13.0366C1.78711 13.1685 1.81885 13.2661 1.88232 13.3296C1.9458 13.3931 2.04102 13.4248 2.16797 13.4248ZM9.50684 14.4575C9.03809 14.4575 8.68652 14.3403 8.45215 14.106C8.21777 13.8716 8.10059 13.5127 8.10059 13.0293V9.75537C8.10059 9.27197 8.21777 8.91309 8.45215 8.67871C8.68652 8.44434 9.03809 8.32715 9.50684 8.32715H12.8394C13.3032 8.32715 13.6523 8.44434 13.8867 8.67871C14.1211 8.91309 14.2383 9.27197 14.2383 9.75537V13.0293C14.2383 13.5127 14.1211 13.8716 13.8867 14.106C13.6523 14.3403 13.3032 14.4575 12.8394 14.4575H9.50684ZM9.52148 13.4248H12.8247C12.9565 13.4248 13.0518 13.3931 13.1104 13.3296C13.1738 13.2661 13.2056 13.1685 13.2056 13.0366V9.75537C13.2056 9.62354 13.1738 9.52588 13.1104 9.4624C13.0518 9.39404 12.9565 9.35986 12.8247 9.35986H9.52148C9.38965 9.35986 9.29199 9.39404 9.22852 9.4624C9.16504 9.52588 9.1333 9.62354 9.1333 9.75537V13.0366C9.1333 13.1685 9.16504 13.2661 9.22852 13.3296C9.29199 13.3931 9.38965 13.4248 9.52148 13.4248Z" fill="white"/>
</svg>
