<svg width="14" height="14" viewBox="0 0 14 14" fill="none" xmlns="http://www.w3.org/2000/svg">
<path d="M6.89746 13.0327C6.7998 13.0327 6.71191 13.0156 6.63379 12.9814C6.55566 12.9473 6.48486 12.8984 6.42139 12.835L0.613281 7.16602C0.544922 7.09766 0.491211 7.02197 0.452148 6.93896C0.417969 6.85596 0.400879 6.76807 0.400879 6.67529C0.400879 6.58252 0.417969 6.49219 0.452148 6.4043C0.491211 6.31641 0.547363 6.24316 0.620605 6.18457L6.42139 0.508301C6.55322 0.376465 6.71191 0.310547 6.89746 0.310547C7.02441 0.310547 7.13672 0.339844 7.23438 0.398438C7.33691 0.457031 7.41748 0.537598 7.47607 0.640137C7.53467 0.742676 7.56396 0.857422 7.56396 0.984375C7.56396 1.16504 7.50049 1.32373 7.37354 1.46045L1.63867 7.06348V6.27979L7.37354 11.8901C7.50049 12.0269 7.56396 12.1855 7.56396 12.3662C7.56396 12.4932 7.53467 12.6055 7.47607 12.7031C7.41748 12.8057 7.33691 12.8862 7.23438 12.9448C7.13672 13.0034 7.02441 13.0327 6.89746 13.0327ZM12.9253 2.03906C12.7397 2.03906 12.5811 1.97314 12.4492 1.84131C12.3174 1.70947 12.2515 1.55078 12.2515 1.36523C12.2515 1.17969 12.3174 1.021 12.4492 0.88916C12.5811 0.757324 12.7397 0.691406 12.9253 0.691406C13.1157 0.691406 13.2744 0.757324 13.4014 0.88916C13.5332 1.021 13.5991 1.17969 13.5991 1.36523C13.5991 1.55078 13.5332 1.70947 13.4014 1.84131C13.2744 1.97314 13.1157 2.03906 12.9253 2.03906ZM11.5996 3.37939C11.4141 3.37939 11.2554 3.31348 11.1235 3.18164C10.9917 3.0498 10.9258 2.89111 10.9258 2.70557C10.9258 2.51514 10.9917 2.35645 11.1235 2.22949C11.2554 2.09766 11.4141 2.03174 11.5996 2.03174C11.7852 2.03174 11.9438 2.09766 12.0757 2.22949C12.2075 2.35645 12.2734 2.51514 12.2734 2.70557C12.2734 2.89111 12.2075 3.0498 12.0757 3.18164C11.9438 3.31348 11.7852 3.37939 11.5996 3.37939ZM10.2739 4.7124C10.0835 4.7124 9.92236 4.64893 9.79053 4.52197C9.66357 4.39014 9.6001 4.229 9.6001 4.03857C9.6001 3.85303 9.66357 3.69434 9.79053 3.5625C9.92236 3.43066 10.0835 3.36475 10.2739 3.36475C10.4595 3.36475 10.6182 3.43066 10.75 3.5625C10.8818 3.69434 10.9478 3.85303 10.9478 4.03857C10.9478 4.229 10.8818 4.39014 10.75 4.52197C10.6182 4.64893 10.4595 4.7124 10.2739 4.7124ZM8.94092 6.05273C8.75537 6.05273 8.59668 5.98682 8.46484 5.85498C8.33301 5.72314 8.26709 5.56445 8.26709 5.37891C8.26709 5.19336 8.33301 5.03467 8.46484 4.90283C8.59668 4.771 8.75537 4.70508 8.94092 4.70508C9.12646 4.70508 9.28516 4.771 9.41699 4.90283C9.54883 5.03467 9.61475 5.19336 9.61475 5.37891C9.61475 5.56445 9.54883 5.72314 9.41699 5.85498C9.28516 5.98682 9.12646 6.05273 8.94092 6.05273ZM7.61523 7.39307C7.4248 7.39307 7.26367 7.32715 7.13184 7.19531C7.00488 7.06348 6.94141 6.90479 6.94141 6.71924C6.94141 6.53369 7.00488 6.375 7.13184 6.24316C7.26367 6.11133 7.4248 6.04541 7.61523 6.04541C7.80078 6.04541 7.95947 6.11133 8.09131 6.24316C8.22314 6.375 8.28906 6.53369 8.28906 6.71924C8.28906 6.90479 8.22314 7.06348 8.09131 7.19531C7.95947 7.32715 7.80078 7.39307 7.61523 7.39307ZM8.94092 8.7334C8.75537 8.7334 8.59668 8.66748 8.46484 8.53564C8.33301 8.40381 8.26709 8.24512 8.26709 8.05957C8.26709 7.86914 8.33301 7.71045 8.46484 7.5835C8.59668 7.45166 8.75537 7.38574 8.94092 7.38574C9.12646 7.38574 9.28516 7.45166 9.41699 7.5835C9.54883 7.71045 9.61475 7.86914 9.61475 8.05957C9.61475 8.24512 9.54883 8.40381 9.41699 8.53564C9.28516 8.66748 9.12646 8.7334 8.94092 8.7334ZM10.2739 10.0664C10.0835 10.0664 9.92236 10.0029 9.79053 9.87598C9.66357 9.74414 9.6001 9.58301 9.6001 9.39258C9.6001 9.20703 9.66357 9.04834 9.79053 8.9165C9.92236 8.78467 10.0835 8.71875 10.2739 8.71875C10.4595 8.71875 10.6182 8.78467 10.75 8.9165C10.8818 9.04834 10.9478 9.20703 10.9478 9.39258C10.9478 9.58301 10.8818 9.74414 10.75 9.87598C10.6182 10.0029 10.4595 10.0664 10.2739 10.0664ZM11.5996 11.4067C11.4141 11.4067 11.2554 11.3408 11.1235 11.209C10.9917 11.0771 10.9258 10.9185 10.9258 10.7329C10.9258 10.5474 10.9917 10.3887 11.1235 10.2568C11.2554 10.125 11.4141 10.0591 11.5996 10.0591C11.7852 10.0591 11.9438 10.125 12.0757 10.2568C12.2075 10.3887 12.2734 10.5474 12.2734 10.7329C12.2734 10.9185 12.2075 11.0771 12.0757 11.209C11.9438 11.3408 11.7852 11.4067 11.5996 11.4067ZM12.9253 12.7471C12.7397 12.7471 12.5811 12.6812 12.4492 12.5493C12.3174 12.4175 12.2515 12.2588 12.2515 12.0732C12.2515 11.8828 12.3174 11.7241 12.4492 11.5972C12.5811 11.4653 12.7397 11.3994 12.9253 11.3994C13.1157 11.3994 13.2744 11.4653 13.4014 11.5972C13.5332 11.7241 13.5991 11.8828 13.5991 12.0732C13.5991 12.2588 13.5332 12.4175 13.4014 12.5493C13.2744 12.6812 13.1157 12.7471 12.9253 12.7471Z" fill="white"/>
</svg>
